#!OML:ASF G:\ViconDB\ViconDB\414\test\team2\shane.ASF
:FULLY-SPECIFIED
:DEGREES
215
root 7.56181 2.02179 3.84803 312.695 -42.533 -62.9768
lowerback 15.0229 0.9793 5.44539
upperback 7.06486 2.04558 1.35383
thorax -0.784134 1.10677 -1.96095
lowerneck -25.3144 -4.16037 -9.36698
upperneck 26.1308 -4.27421 6.60415
head 13.3917 -1.93799 3.36623
rclavicle 1.43125e-013 0
rhumerus 31.4863 34.8663 -69.5287
rradius 80.1517
rwrist 28.8846
rhand -45.8737 -25.4284
rfingers 7.12502
rthumb -18.6242 -54.5568
lclavicle 1.43125e-013 0
lhumerus -3.25896 -16.6624 85.883
lradius 104.843
lwrist -28.1928
lhand -66.9626 -297.069
lfingers 7.12502
lthumb -38.7516 -271.478
rfemur -10.7862 -24.3487 -24.8861
rtibia 111.839
rfoot -6.52851 17.5694
rtoes -13.3871
lfemur -32.6154 16.8063 -10.7467
ltibia 98.2729
lfoot -3.91538 -18.8582
ltoes -1.03496
216
root 7.56181 2.02179 3.84803 312.695 -42.533 -62.9768
lowerback 15.0229 0.9793 5.44539
upperback 7.06486 2.04558 1.35383
thorax -0.784134 1.10677 -1.96095
lowerneck -25.3144 -4.16037 -9.36698
upperneck 26.1308 -4.27421 6.60415
head 13.3917 -1.93799 3.36623
rclavicle 1.43125e-013 0
rhumerus 31.4863 34.8663 -69.5287
rradius 80.1517
rwrist 28.8846
rhand -45.8737 -25.4284
rfingers 7.12502
rthumb -18.6242 -54.5568
lclavicle 1.43125e-013 0
lhumerus -3.25896 -16.6624 85.883
lradius 104.843
lwrist -28.1928
lhand -66.9626 -297.069
lfingers 7.12502
lthumb -38.7516 -271.478
rfemur -10.7862 -24.3487 -24.8861
rtibia 111.839
rfoot -6.52851 17.5694
rtoes -13.3871
lfemur -32.6154 16.8063 -10.7467
ltibia 98.2729
lfoot -3.91538 -18.8582
ltoes -1.03496
217
root 7.67938 2.21788 4.06643 315.778 -36.9601 -67.2601
lowerback 15.2539 1.78361 3.06047
upperback 6.60632 2.82167 0.876941
thorax -1.44392 1.44392 -1.25958
lowerneck -24.9995 -4.65579 -8.39132
upperneck 24.609 -5.32777 6.57136
head 12.7775 -2.29742 2.95545
rclavicle -2.8625e-014 1.43125e-014
rhumerus 34.6705 37.2634 -64.7515
rradius 77.1312
rwrist 29.0317
rhand -45.4257 -23.5334
rfingers 7.12502
rthumb -18.1932 -52.7026
lclavicle -2.8625e-014 1.43125e-014
lhumerus -3.25896 -16.6624 85.883
lradius 104.843
lwrist -28.1928
lhand -66.9626 -297.069
lfingers 7.12502
lthumb -38.7516 -271.478
rfemur -7.68889 -26.2578 -27.5743
rtibia 114.465
rfoot -5.87535 20.6507
rtoes -15.9185
lfemur -32.881 17.5433 -11.4636
ltibia 98.3899
lfoot -7.92639 -5.27194
ltoes 3.88592
218
root 7.67938 2.21788 4.06643 315.778 -36.9601 -67.2601
lowerback 15.2539 1.78361 3.06047
upperback 6.60632 2.82167 0.876941
thorax -1.44392 1.44392 -1.25958
lowerneck -24.9995 -4.65579 -8.39132
upperneck 24.609 -5.32777 6.57136
head 12.7775 -2.29742 2.95545
rclavicle -2.8625e-014 1.43125e-014
rhumerus 34.6705 37.2634 -64.7515
rradius 77.1312
rwrist 29.0317
rhand -45.4257 -23.5334
rfingers 7.12502
rthumb -18.1932 -52.7026
lclavicle -2.8625e-014 1.43125e-014
lhumerus -3.25896 -16.6624 85.883
lradius 104.843
lwrist -28.1928
lhand -66.9626 -297.069
lfingers 7.12502
lthumb -38.7516 -271.478
rfemur -7.68889 -26.2578 -27.5743
rtibia 114.465
rfoot -5.87535 20.6507
rtoes -15.9185
lfemur -32.881 17.5433 -11.4636
ltibia 98.3899
lfoot -7.92639 -5.27194
ltoes 3.88592
219
root 7.67938 2.21788 4.06643 315.778 -36.9601 -67.2601
lowerback 15.2539 1.78361 3.06047
upperback 6.60632 2.82167 0.876941
thorax -1.44392 1.44392 -1.25958
lowerneck -24.9995 -4.65579 -8.39132
upperneck 24.609 -5.32777 6.57136
head 12.7775 -2.29742 2.95545
rclavicle -2.8625e-014 1.43125e-014
rhumerus 34.6705 37.2634 -64.7515
rradius 77.1312
rwrist 29.0317
rhand -45.4257 -23.5334
rfingers 7.12502
rthumb -18.1932 -52.7026
lclavicle -2.8625e-014 1.43125e-014
lhumerus -3.25896 -16.6624 85.883
lradius 104.843
lwrist -28.1928
lhand -66.9626 -297.069
lfingers 7.12502
lthumb -38.7516 -271.478
rfemur -7.68889 -26.2578 -27.5743
rtibia 114.465
rfoot -5.87535 20.6507
rtoes -15.9185
lfemur -32.881 17.5433 -11.4636
ltibia 98.3899
lfoot -7.92639 -5.27194
ltoes 3.88592
220
root 7.67938 2.21788 4.06643 315.778 -36.9601 -67.2601
lowerback 15.2539 1.78361 3.06047
upperback 6.60632 2.82167 0.876941
thorax -1.44392 1.44392 -1.25958
lowerneck -24.9995 -4.65579 -8.39132
upperneck 24.609 -5.32777 6.57136
head 12.7775 -2.29742 2.95545
rclavicle -2.8625e-014 1.43125e-014
rhumerus 34.6705 37.2634 -64.7515
rradius 77.1312
rwrist 29.0317
rhand -45.4257 -23.5334
rfingers 7.12502
rthumb -18.1932 -52.7026
lclavicle -2.8625e-014 1.43125e-014
lhumerus -3.25896 -16.6624 85.883
lradius 104.843
lwrist -28.1928
lhand -66.9626 -297.069
lfingers 7.12502
lthumb -38.7516 -271.478
rfemur -7.68889 -26.2578 -27.5743
rtibia 114.465
rfoot -5.87535 20.6507
rtoes -15.9185
lfemur -32.881 17.5433 -11.4636
ltibia 98.3899
lfoot -7.92639 -5.27194
ltoes 3.88592
221
root 7.67938 2.21788 4.06643 315.778 -36.9601 -67.2601
lowerback 15.2539 1.78361 3.06047
upperback 6.60632 2.82167 0.876941
thorax -1.44392 1.44392 -1.25958
lowerneck -24.9995 -4.65579 -8.39132
upperneck 24.609 -5.32777 6.57136
head 12.7775 -2.29742 2.95545
rclavicle -2.8625e-014 1.43125e-014
rhumerus 34.6705 37.2634 -64.7515
rradius 77.1312
rwrist 29.0317
rhand -45.4257 -23.5334
rfingers 7.12502
rthumb -18.1932 -52.7026
lclavicle -2.8625e-014 1.43125e-014
lhumerus -3.25896 -16.6624 85.883
lradius 104.843
lwrist -28.1928
lhand -66.9626 -297.069
lfingers 7.12502
lthumb -38.7516 -271.478
rfemur -7.68889 -26.2578 -27.5743
rtibia 114.465
rfoot -5.87535 20.6507
rtoes -15.9185
lfemur -32.881 17.5433 -11.4636
ltibia 98.3899
lfoot -7.92639 -5.27194
ltoes 3.88592
222
root 7.67938 2.21788 4.06643 315.778 -36.9601 -67.2601
lowerback 15.2539 1.78361 3.06047
upperback 6.60632 2.82167 0.876941
thorax -1.44392 1.44392 -1.25958
lowerneck -24.9995 -4.65579 -8.39132
upperneck 24.609 -5.32777 6.57136
head 12.7775 -2.29742 2.95545
rclavicle -2.8625e-014 1.43125e-014
rhumerus 34.6705 37.2634 -64.7515
rradius 77.1312
rwrist 29.0317
rhand -45.4257 -23.5334
rfingers 7.12502
rthumb -18.1932 -52.7026
lclavicle -2.8625e-014 1.43125e-014
lhumerus -3.25896 -16.6624 85.883
lradius 104.843
lwrist -28.1928
lhand -66.9626 -297.069
lfingers 7.12502
lthumb -38.7516 -271.478
rfemur -7.68889 -26.2578 -27.5743
rtibia 114.465
rfoot -5.87535 20.6507
rtoes -15.9185
lfemur -32.881 17.5433 -11.4636
ltibia 98.3899
lfoot -7.92639 -5.27194
ltoes 3.88592
223
root 7.67938 2.21788 4.06643 315.778 -36.9601 -67.2601
lowerback 15.2539 1.78361 3.06047
upperback 6.60632 2.82167 0.876941
thorax -1.44392 1.44392 -1.25958
lowerneck -24.9995 -4.65579 -8.39132
upperneck 24.609 -5.32777 6.57136
head 12.7775 -2.29742 2.95545
rclavicle -2.8625e-014 1.43125e-014
rhumerus 34.6705 37.2634 -64.7515
rradius 77.1312
rwrist 29.0317
rhand -45.4257 -23.5334
rfingers 7.12502
rthumb -18.1932 -52.7026
lclavicle -2.8625e-014 1.43125e-014
lhumerus -3.25896 -16.6624 85.883
lradius 104.843
lwrist -28.1928
lhand -66.9626 -297.069
lfingers 7.12502
lthumb -38.7516 -271.478
rfemur -7.68889 -26.2578 -27.5743
rtibia 114.465
rfoot -5.87535 20.6507
rtoes -15.9185
lfemur -32.881 17.5433 -11.4636
ltibia 98.3899
lfoot -7.92639 -5.27194
ltoes 3.88592
